<svg width="247" height="255" viewBox="0 0 247 255" fill="none" xmlns="http://www.w3.org/2000/svg">
<g filter="url(#filter0_d)">
<path d="M239.112 125.391C239.29 135.649 238.266 145.684 235.949 154.509C232.474 167.724 225.702 176.236 218.128 186.987C209.708 198.993 202.179 211.716 189.303 218.749C180.482 223.542 170.547 227.887 161.414 231.65C132.589 243.611 100.111 239.266 72.9341 224.976C59.7468 218.032 46.0694 208.58 36.4462 196.977C17.5562 174.22 11.4972 142.683 13.2792 113.743C15.1059 84.1322 25.3082 66.1236 46.0248 45.4719C53.2422 38.2595 56.3163 33.7798 65.9395 30.42C78.1021 26.1642 89.3737 18.6382 101.536 15.9056C115.169 12.8593 129.515 11.7394 143.46 12.8593C157.716 13.9793 174.245 20.9229 186.63 28.4489C206.5 40.5442 222.272 58.4632 230.826 80.2348C235.905 93.2709 238.845 109.577 239.112 125.391Z" fill="#FAFAFA"/>
</g>
<path d="M81.81 215V208.33H82.02C82.44 208.79 82.8533 209.27 83.26 209.77C83.6667 210.263 84.0467 210.743 84.4 211.21C84.76 211.677 85.0867 212.117 85.38 212.53C85.6733 212.937 85.9167 213.283 86.11 213.57V208.33L86.66 208.27V215H86.46C85.76 213.92 85.0567 212.91 84.35 211.97C83.6433 211.03 82.9733 210.197 82.34 209.47V215H81.81ZM88.6546 213.31C88.6546 213.79 88.7713 214.137 89.0046 214.35C89.2446 214.557 89.5646 214.66 89.9646 214.66C90.2646 214.66 90.5413 214.6 90.7946 214.48C91.0479 214.353 91.2613 214.193 91.4346 214V210.27L91.9646 210.2V215H91.4946L91.4546 214.53C91.2746 214.683 91.0646 214.82 90.8246 214.94C90.5846 215.053 90.2746 215.11 89.8946 215.11C89.3346 215.11 88.8979 214.967 88.5846 214.68C88.2779 214.387 88.1246 213.93 88.1246 213.31V210.27L88.6546 210.2V213.31ZM93.3404 215V210.27L93.8204 210.2L93.8604 210.68C94.0137 210.547 94.2171 210.42 94.4704 210.3C94.7237 210.173 95.0171 210.11 95.3504 210.11C95.6504 210.11 95.9037 210.16 96.1104 210.26C96.3237 210.353 96.4971 210.493 96.6304 210.68C96.8104 210.527 97.0304 210.393 97.2904 210.28C97.5571 210.167 97.8704 210.11 98.2304 210.11C98.8171 210.11 99.2471 210.273 99.5204 210.6C99.8004 210.92 99.9404 211.38 99.9404 211.98V215H99.4104V211.94C99.4104 211.487 99.3004 211.147 99.0804 210.92C98.8671 210.687 98.5637 210.57 98.1704 210.57C97.8837 210.57 97.6271 210.623 97.4004 210.73C97.1737 210.837 96.9804 210.957 96.8204 211.09C96.8604 211.19 96.8937 211.313 96.9204 211.46C96.9471 211.6 96.9604 211.757 96.9604 211.93V215H96.4304V211.89C96.4304 211.703 96.4071 211.53 96.3604 211.37C96.3204 211.21 96.2537 211.07 96.1604 210.95C96.0671 210.83 95.9437 210.737 95.7904 210.67C95.6437 210.603 95.4671 210.57 95.2604 210.57C94.9871 210.57 94.7271 210.637 94.4804 210.77C94.2404 210.903 94.0337 211.04 93.8604 211.18V215H93.3404ZM101.8 210.46C101.973 210.36 102.163 210.277 102.37 210.21C102.577 210.143 102.81 210.11 103.07 210.11C103.363 210.11 103.64 210.163 103.9 210.27C104.16 210.37 104.387 210.523 104.58 210.73C104.773 210.937 104.927 211.197 105.04 211.51C105.153 211.817 105.21 212.173 105.21 212.58C105.21 212.967 105.15 213.317 105.03 213.63C104.91 213.943 104.743 214.21 104.53 214.43C104.323 214.65 104.08 214.82 103.8 214.94C103.52 215.053 103.217 215.11 102.89 215.11C102.55 215.11 102.243 215.077 101.97 215.01C101.697 214.95 101.467 214.88 101.28 214.8V208.34L101.8 208.27V210.46ZM101.8 214.48C101.953 214.54 102.12 214.59 102.3 214.63C102.487 214.663 102.657 214.68 102.81 214.68C103.09 214.68 103.347 214.63 103.58 214.53C103.813 214.43 104.01 214.287 104.17 214.1C104.337 213.913 104.463 213.693 104.55 213.44C104.643 213.18 104.69 212.893 104.69 212.58C104.69 212.26 104.647 211.977 104.56 211.73C104.473 211.477 104.35 211.263 104.19 211.09C104.037 210.917 103.853 210.783 103.64 210.69C103.433 210.597 103.21 210.55 102.97 210.55C102.757 210.55 102.55 210.587 102.35 210.66C102.157 210.727 101.973 210.823 101.8 210.95V214.48ZM106.638 212.53C106.638 213.203 106.781 213.73 107.068 214.11C107.355 214.483 107.771 214.67 108.318 214.67C108.658 214.67 108.938 214.59 109.158 214.43C109.378 214.263 109.558 214.057 109.698 213.81L110.078 214.05C109.998 214.19 109.905 214.323 109.798 214.45C109.698 214.577 109.575 214.69 109.428 214.79C109.288 214.89 109.125 214.967 108.938 215.02C108.751 215.08 108.538 215.11 108.298 215.11C107.618 215.11 107.088 214.893 106.708 214.46C106.328 214.02 106.138 213.403 106.138 212.61C106.138 212.223 106.188 211.877 106.288 211.57C106.388 211.257 106.528 210.993 106.708 210.78C106.888 210.567 107.101 210.403 107.348 210.29C107.601 210.17 107.878 210.11 108.178 210.11C108.498 210.11 108.778 210.17 109.018 210.29C109.265 210.403 109.471 210.567 109.638 210.78C109.805 210.987 109.931 211.24 110.018 211.54C110.105 211.84 110.155 212.17 110.168 212.53H106.638ZM109.578 212.09C109.565 211.823 109.515 211.593 109.428 211.4C109.341 211.2 109.231 211.04 109.098 210.92C108.971 210.793 108.828 210.7 108.668 210.64C108.508 210.58 108.345 210.55 108.178 210.55C107.798 210.55 107.471 210.673 107.198 210.92C106.925 211.16 106.751 211.55 106.678 212.09H109.578ZM111.221 215V210.27L111.681 210.2L111.731 210.72C111.871 210.553 112.041 210.413 112.241 210.3C112.448 210.18 112.671 210.12 112.911 210.12C113.045 210.12 113.161 210.127 113.261 210.14C113.368 210.153 113.455 210.17 113.521 210.19L113.431 210.68C113.285 210.627 113.098 210.6 112.871 210.6C112.658 210.6 112.448 210.667 112.241 210.8C112.041 210.933 111.875 211.08 111.741 211.24V215H111.221ZM117.201 214.9C116.941 214.753 116.721 214.563 116.541 214.33C116.361 214.097 116.225 213.827 116.131 213.52C116.045 213.213 116.001 212.9 116.001 212.58C116.001 212.26 116.045 211.953 116.131 211.66C116.225 211.36 116.358 211.097 116.531 210.87C116.711 210.637 116.931 210.453 117.191 210.32C117.458 210.18 117.768 210.11 118.121 210.11C118.468 210.11 118.775 210.18 119.041 210.32C119.308 210.46 119.531 210.647 119.711 210.88C119.891 211.107 120.025 211.37 120.111 211.67C120.205 211.97 120.251 212.28 120.251 212.6C120.251 212.927 120.205 213.243 120.111 213.55C120.025 213.85 119.891 214.117 119.711 214.35C119.531 214.577 119.308 214.76 119.041 214.9C118.775 215.04 118.468 215.11 118.121 215.11C117.775 215.11 117.468 215.04 117.201 214.9ZM116.921 214.02C117.055 214.213 117.221 214.37 117.421 214.49C117.621 214.61 117.855 214.67 118.121 214.67C118.395 214.67 118.631 214.61 118.831 214.49C119.031 214.363 119.198 214.203 119.331 214.01C119.465 213.81 119.565 213.587 119.631 213.34C119.698 213.093 119.731 212.843 119.731 212.59C119.731 212.337 119.698 212.09 119.631 211.85C119.565 211.603 119.465 211.383 119.331 211.19C119.198 210.997 119.031 210.843 118.831 210.73C118.631 210.61 118.395 210.55 118.121 210.55C117.848 210.55 117.611 210.61 117.411 210.73C117.211 210.843 117.045 210.997 116.911 211.19C116.778 211.377 116.678 211.593 116.611 211.84C116.551 212.08 116.521 212.327 116.521 212.58C116.521 212.84 116.555 213.097 116.621 213.35C116.688 213.597 116.788 213.82 116.921 214.02ZM121.597 215V210.68L120.887 210.58V210.24H121.597V209.68C121.597 209.173 121.71 208.8 121.937 208.56C122.163 208.32 122.47 208.2 122.857 208.2C123.09 208.2 123.28 208.223 123.427 208.27C123.573 208.317 123.697 208.367 123.797 208.42L123.617 208.85C123.523 208.797 123.417 208.75 123.297 208.71C123.177 208.67 123.037 208.65 122.877 208.65C122.643 208.65 122.457 208.727 122.317 208.88C122.183 209.027 122.117 209.307 122.117 209.72V210.24H123.257L123.187 210.68H122.117V215H121.597ZM129.746 216.89H129.226V214.73C129.079 214.837 128.896 214.927 128.676 215C128.462 215.073 128.219 215.11 127.946 215.11C127.639 215.11 127.356 215.053 127.096 214.94C126.836 214.827 126.609 214.667 126.416 214.46C126.229 214.247 126.082 213.987 125.976 213.68C125.869 213.373 125.816 213.03 125.816 212.65C125.816 212.263 125.872 211.913 125.986 211.6C126.106 211.287 126.269 211.02 126.476 210.8C126.689 210.58 126.939 210.41 127.226 210.29C127.519 210.17 127.842 210.11 128.196 210.11C128.489 210.11 128.772 210.143 129.046 210.21C129.319 210.277 129.552 210.367 129.746 210.48V216.89ZM128.216 210.55C127.962 210.55 127.722 210.597 127.496 210.69C127.269 210.777 127.069 210.91 126.896 211.09C126.722 211.263 126.586 211.483 126.486 211.75C126.386 212.01 126.336 212.31 126.336 212.65C126.336 212.977 126.382 213.267 126.476 213.52C126.569 213.767 126.692 213.977 126.846 214.15C126.999 214.317 127.179 214.447 127.386 214.54C127.592 214.627 127.809 214.67 128.036 214.67C128.282 214.67 128.512 214.627 128.726 214.54C128.939 214.447 129.106 214.347 129.226 214.24V210.76C129.086 210.687 128.926 210.633 128.746 210.6C128.572 210.567 128.396 210.55 128.216 210.55ZM131.614 213.31C131.614 213.79 131.73 214.137 131.964 214.35C132.204 214.557 132.524 214.66 132.924 214.66C133.224 214.66 133.5 214.6 133.754 214.48C134.007 214.353 134.22 214.193 134.394 214V210.27L134.924 210.2V215H134.454L134.414 214.53C134.234 214.683 134.024 214.82 133.784 214.94C133.544 215.053 133.234 215.11 132.854 215.11C132.294 215.11 131.857 214.967 131.544 214.68C131.237 214.387 131.084 213.93 131.084 213.31V210.27L131.614 210.2V213.31ZM136.579 212.53C136.579 213.203 136.723 213.73 137.009 214.11C137.296 214.483 137.713 214.67 138.259 214.67C138.599 214.67 138.879 214.59 139.099 214.43C139.319 214.263 139.499 214.057 139.639 213.81L140.019 214.05C139.939 214.19 139.846 214.323 139.739 214.45C139.639 214.577 139.516 214.69 139.369 214.79C139.229 214.89 139.066 214.967 138.879 215.02C138.693 215.08 138.479 215.11 138.239 215.11C137.559 215.11 137.029 214.893 136.649 214.46C136.269 214.02 136.079 213.403 136.079 212.61C136.079 212.223 136.129 211.877 136.229 211.57C136.329 211.257 136.469 210.993 136.649 210.78C136.829 210.567 137.043 210.403 137.289 210.29C137.543 210.17 137.819 210.11 138.119 210.11C138.439 210.11 138.719 210.17 138.959 210.29C139.206 210.403 139.413 210.567 139.579 210.78C139.746 210.987 139.873 211.24 139.959 211.54C140.046 211.84 140.096 212.17 140.109 212.53H136.579ZM139.519 212.09C139.506 211.823 139.456 211.593 139.369 211.4C139.283 211.2 139.173 211.04 139.039 210.92C138.913 210.793 138.769 210.7 138.609 210.64C138.449 210.58 138.286 210.55 138.119 210.55C137.739 210.55 137.413 210.673 137.139 210.92C136.866 211.16 136.693 211.55 136.619 212.09H139.519ZM141.233 214.01C141.359 214.21 141.519 214.37 141.713 214.49C141.913 214.61 142.163 214.67 142.463 214.67C142.803 214.67 143.069 214.597 143.263 214.45C143.463 214.303 143.563 214.083 143.563 213.79C143.563 213.483 143.463 213.247 143.263 213.08C143.063 212.907 142.739 212.743 142.293 212.59C141.833 212.437 141.506 212.263 141.313 212.07C141.119 211.877 141.023 211.613 141.023 211.28C141.023 210.933 141.153 210.653 141.413 210.44C141.673 210.22 142.033 210.11 142.493 210.11C142.866 210.11 143.173 210.18 143.413 210.32C143.653 210.453 143.843 210.63 143.983 210.85L143.593 211.13C143.479 210.963 143.329 210.823 143.143 210.71C142.963 210.597 142.746 210.54 142.493 210.54C142.173 210.54 141.933 210.61 141.773 210.75C141.619 210.883 141.543 211.053 141.543 211.26C141.543 211.38 141.559 211.483 141.593 211.57C141.633 211.657 141.696 211.737 141.783 211.81C141.876 211.883 141.999 211.957 142.153 212.03C142.313 212.097 142.509 212.17 142.743 212.25C143.189 212.403 143.519 212.593 143.733 212.82C143.953 213.047 144.063 213.36 144.063 213.76C144.063 214.2 143.909 214.537 143.603 214.77C143.303 214.997 142.923 215.11 142.463 215.11C142.023 215.11 141.673 215.03 141.413 214.87C141.159 214.703 140.963 214.503 140.823 214.27L141.233 214.01ZM145.85 213.99C145.85 214.243 145.9 214.42 146 214.52C146.106 214.62 146.25 214.67 146.43 214.67C146.556 214.67 146.666 214.653 146.76 214.62C146.853 214.58 146.946 214.523 147.04 214.45L147.26 214.83C147.126 214.923 146.993 214.993 146.86 215.04C146.733 215.087 146.553 215.11 146.32 215.11C146.02 215.11 145.78 215.023 145.6 214.85C145.426 214.67 145.34 214.41 145.34 214.07V210.68L144.52 210.58V210.24H145.34V208.95L145.86 208.88V210.24H147.14L147.07 210.68H145.85V213.99ZM148.145 215V210.27L148.665 210.2V215H148.145ZM148.415 209.21C148.288 209.21 148.185 209.17 148.105 209.09C148.032 209.01 147.995 208.903 147.995 208.77C147.995 208.637 148.032 208.53 148.105 208.45C148.185 208.37 148.288 208.33 148.415 208.33C148.542 208.33 148.642 208.37 148.715 208.45C148.795 208.53 148.835 208.637 148.835 208.77C148.835 208.903 148.795 209.01 148.715 209.09C148.642 209.17 148.542 209.21 148.415 209.21ZM151.039 214.9C150.779 214.753 150.559 214.563 150.379 214.33C150.199 214.097 150.062 213.827 149.969 213.52C149.882 213.213 149.839 212.9 149.839 212.58C149.839 212.26 149.882 211.953 149.969 211.66C150.062 211.36 150.196 211.097 150.369 210.87C150.549 210.637 150.769 210.453 151.029 210.32C151.296 210.18 151.606 210.11 151.959 210.11C152.306 210.11 152.612 210.18 152.879 210.32C153.146 210.46 153.369 210.647 153.549 210.88C153.729 211.107 153.862 211.37 153.949 211.67C154.042 211.97 154.089 212.28 154.089 212.6C154.089 212.927 154.042 213.243 153.949 213.55C153.862 213.85 153.729 214.117 153.549 214.35C153.369 214.577 153.146 214.76 152.879 214.9C152.612 215.04 152.306 215.11 151.959 215.11C151.612 215.11 151.306 215.04 151.039 214.9ZM150.759 214.02C150.892 214.213 151.059 214.37 151.259 214.49C151.459 214.61 151.692 214.67 151.959 214.67C152.232 214.67 152.469 214.61 152.669 214.49C152.869 214.363 153.036 214.203 153.169 214.01C153.302 213.81 153.402 213.587 153.469 213.34C153.536 213.093 153.569 212.843 153.569 212.59C153.569 212.337 153.536 212.09 153.469 211.85C153.402 211.603 153.302 211.383 153.169 211.19C153.036 210.997 152.869 210.843 152.669 210.73C152.469 210.61 152.232 210.55 151.959 210.55C151.686 210.55 151.449 210.61 151.249 210.73C151.049 210.843 150.882 210.997 150.749 211.19C150.616 211.377 150.516 211.593 150.449 211.84C150.389 212.08 150.359 212.327 150.359 212.58C150.359 212.84 150.392 213.097 150.459 213.35C150.526 213.597 150.626 213.82 150.759 214.02ZM155.245 215V210.27L155.725 210.2L155.765 210.68C155.965 210.527 156.188 210.393 156.435 210.28C156.688 210.167 156.995 210.11 157.355 210.11C158.521 210.11 159.105 210.743 159.105 212.01V215H158.585V211.96C158.585 211.52 158.478 211.177 158.265 210.93C158.051 210.683 157.725 210.56 157.285 210.56C156.965 210.56 156.678 210.623 156.425 210.75C156.178 210.877 155.958 211.02 155.765 211.18V215H155.245ZM160.53 214.01C160.656 214.21 160.816 214.37 161.01 214.49C161.21 214.61 161.46 214.67 161.76 214.67C162.1 214.67 162.366 214.597 162.56 214.45C162.76 214.303 162.86 214.083 162.86 213.79C162.86 213.483 162.76 213.247 162.56 213.08C162.36 212.907 162.036 212.743 161.59 212.59C161.13 212.437 160.803 212.263 160.61 212.07C160.416 211.877 160.32 211.613 160.32 211.28C160.32 210.933 160.45 210.653 160.71 210.44C160.97 210.22 161.33 210.11 161.79 210.11C162.163 210.11 162.47 210.18 162.71 210.32C162.95 210.453 163.14 210.63 163.28 210.85L162.89 211.13C162.776 210.963 162.626 210.823 162.44 210.71C162.26 210.597 162.043 210.54 161.79 210.54C161.47 210.54 161.23 210.61 161.07 210.75C160.916 210.883 160.84 211.053 160.84 211.26C160.84 211.38 160.856 211.483 160.89 211.57C160.93 211.657 160.993 211.737 161.08 211.81C161.173 211.883 161.296 211.957 161.45 212.03C161.61 212.097 161.806 212.17 162.04 212.25C162.486 212.403 162.816 212.593 163.03 212.82C163.25 213.047 163.36 213.36 163.36 213.76C163.36 214.2 163.206 214.537 162.9 214.77C162.6 214.997 162.22 215.11 161.76 215.11C161.32 215.11 160.97 215.03 160.71 214.87C160.456 214.703 160.26 214.503 160.12 214.27L160.53 214.01ZM164.956 214.63C164.956 214.763 164.91 214.877 164.816 214.97C164.73 215.057 164.623 215.1 164.496 215.1C164.37 215.1 164.26 215.057 164.166 214.97C164.08 214.877 164.036 214.763 164.036 214.63C164.036 214.497 164.08 214.387 164.166 214.3C164.26 214.207 164.37 214.16 164.496 214.16C164.623 214.16 164.73 214.207 164.816 214.3C164.91 214.387 164.956 214.497 164.956 214.63ZM164.956 210.66C164.956 210.793 164.91 210.907 164.816 211C164.73 211.087 164.623 211.13 164.496 211.13C164.37 211.13 164.26 211.087 164.166 211C164.08 210.907 164.036 210.793 164.036 210.66C164.036 210.527 164.08 210.417 164.166 210.33C164.26 210.237 164.37 210.19 164.496 210.19C164.623 210.19 164.73 210.237 164.816 210.33C164.91 210.417 164.956 210.527 164.956 210.66ZM167.978 209.52L168.148 208.4H172.348V208.81C172.068 209.15 171.798 209.493 171.538 209.84C171.278 210.187 171.008 210.563 170.728 210.97C171.368 211.063 171.838 211.297 172.138 211.67C172.438 212.043 172.588 212.497 172.588 213.03C172.588 213.357 172.521 213.65 172.388 213.91C172.261 214.17 172.084 214.39 171.858 214.57C171.638 214.75 171.374 214.89 171.068 214.99C170.761 215.083 170.428 215.13 170.068 215.13C169.554 215.13 169.111 215.07 168.738 214.95C168.371 214.83 168.028 214.66 167.708 214.44L168.308 213.46C168.568 213.64 168.828 213.777 169.088 213.87C169.348 213.963 169.648 214.01 169.988 214.01C170.368 214.01 170.668 213.92 170.888 213.74C171.108 213.553 171.218 213.29 171.218 212.95C171.218 212.57 171.101 212.297 170.868 212.13C170.634 211.963 170.278 211.88 169.798 211.88C169.718 211.88 169.634 211.887 169.548 211.9C169.461 211.907 169.378 211.917 169.298 211.93L169.098 211.51C169.311 211.15 169.521 210.803 169.728 210.47C169.941 210.137 170.161 209.82 170.388 209.52H167.978Z" fill="#006C3A"/>
<path d="M59.86 190.33C60.0933 190.823 60.32 191.327 60.54 191.84C60.76 192.347 60.9767 192.873 61.19 193.42C61.41 193.967 61.6233 194.537 61.83 195.13C62.0433 195.717 62.26 196.34 62.48 197H61.92C61.7933 196.613 61.6667 196.243 61.54 195.89C61.42 195.537 61.3 195.19 61.18 194.85H58.31C58.19 195.19 58.0667 195.537 57.94 195.89C57.82 196.243 57.7 196.613 57.58 197H57.03C57.4567 195.687 57.8867 194.49 58.32 193.41C58.76 192.33 59.2133 191.303 59.68 190.33H59.86ZM59.75 191.23C59.5633 191.663 59.3633 192.14 59.15 192.66C58.9367 193.173 58.7167 193.737 58.49 194.35H61C60.7733 193.737 60.5533 193.173 60.34 192.66C60.1333 192.14 59.9367 191.663 59.75 191.23ZM63.1978 198.89V192.27L63.6678 192.2L63.7178 192.64C63.8778 192.5 64.0678 192.377 64.2878 192.27C64.5145 192.163 64.7878 192.11 65.1078 192.11C65.4411 192.11 65.7345 192.17 65.9878 192.29C66.2411 192.41 66.4511 192.58 66.6178 192.8C66.7845 193.013 66.9078 193.27 66.9878 193.57C67.0745 193.87 67.1178 194.203 67.1178 194.57C67.1178 194.95 67.0645 195.297 66.9578 195.61C66.8511 195.923 66.6978 196.193 66.4978 196.42C66.2978 196.64 66.0578 196.81 65.7778 196.93C65.4978 197.05 65.1878 197.11 64.8478 197.11C64.5945 197.11 64.3745 197.08 64.1878 197.02C64.0078 196.967 63.8511 196.9 63.7178 196.82V198.89H63.1978ZM63.7178 196.32C63.8445 196.413 63.9978 196.493 64.1778 196.56C64.3578 196.627 64.5645 196.66 64.7978 196.66C65.0645 196.66 65.3078 196.613 65.5278 196.52C65.7545 196.42 65.9445 196.283 66.0978 196.11C66.2578 195.93 66.3811 195.713 66.4678 195.46C66.5545 195.2 66.5978 194.91 66.5978 194.59C66.5978 194.31 66.5678 194.047 66.5078 193.8C66.4478 193.553 66.3511 193.34 66.2178 193.16C66.0911 192.973 65.9278 192.827 65.7278 192.72C65.5278 192.607 65.2845 192.55 64.9978 192.55C64.7378 192.55 64.5011 192.61 64.2878 192.73C64.0745 192.843 63.8845 192.98 63.7178 193.14V196.32ZM68.2662 198.89V192.27L68.7362 192.2L68.7862 192.64C68.9462 192.5 69.1362 192.377 69.3562 192.27C69.5828 192.163 69.8562 192.11 70.1762 192.11C70.5095 192.11 70.8028 192.17 71.0562 192.29C71.3095 192.41 71.5195 192.58 71.6862 192.8C71.8528 193.013 71.9762 193.27 72.0562 193.57C72.1428 193.87 72.1862 194.203 72.1862 194.57C72.1862 194.95 72.1328 195.297 72.0262 195.61C71.9195 195.923 71.7662 196.193 71.5662 196.42C71.3662 196.64 71.1262 196.81 70.8462 196.93C70.5662 197.05 70.2562 197.11 69.9162 197.11C69.6628 197.11 69.4428 197.08 69.2562 197.02C69.0762 196.967 68.9195 196.9 68.7862 196.82V198.89H68.2662ZM68.7862 196.32C68.9128 196.413 69.0662 196.493 69.2462 196.56C69.4262 196.627 69.6328 196.66 69.8662 196.66C70.1328 196.66 70.3762 196.613 70.5962 196.52C70.8228 196.42 71.0128 196.283 71.1662 196.11C71.3262 195.93 71.4495 195.713 71.5362 195.46C71.6228 195.2 71.6662 194.91 71.6662 194.59C71.6662 194.31 71.6362 194.047 71.5762 193.8C71.5162 193.553 71.4195 193.34 71.2862 193.16C71.1595 192.973 70.9962 192.827 70.7962 192.72C70.5962 192.607 70.3528 192.55 70.0662 192.55C69.8062 192.55 69.5695 192.61 69.3562 192.73C69.1428 192.843 68.9528 192.98 68.7862 193.14V196.32ZM73.3345 197V192.27L73.7945 192.2L73.8445 192.72C73.9845 192.553 74.1545 192.413 74.3545 192.3C74.5612 192.18 74.7845 192.12 75.0245 192.12C75.1579 192.12 75.2745 192.127 75.3745 192.14C75.4812 192.153 75.5679 192.17 75.6345 192.19L75.5445 192.68C75.3979 192.627 75.2112 192.6 74.9845 192.6C74.7712 192.6 74.5612 192.667 74.3545 192.8C74.1545 192.933 73.9879 193.08 73.8545 193.24V197H73.3345ZM77.2149 196.9C76.9549 196.753 76.7349 196.563 76.5549 196.33C76.3749 196.097 76.2383 195.827 76.1449 195.52C76.0583 195.213 76.0149 194.9 76.0149 194.58C76.0149 194.26 76.0583 193.953 76.1449 193.66C76.2383 193.36 76.3716 193.097 76.5449 192.87C76.7249 192.637 76.9449 192.453 77.2049 192.32C77.4716 192.18 77.7816 192.11 78.1349 192.11C78.4816 192.11 78.7883 192.18 79.0549 192.32C79.3216 192.46 79.5449 192.647 79.7249 192.88C79.9049 193.107 80.0383 193.37 80.1249 193.67C80.2183 193.97 80.2649 194.28 80.2649 194.6C80.2649 194.927 80.2183 195.243 80.1249 195.55C80.0383 195.85 79.9049 196.117 79.7249 196.35C79.5449 196.577 79.3216 196.76 79.0549 196.9C78.7883 197.04 78.4816 197.11 78.1349 197.11C77.7883 197.11 77.4816 197.04 77.2149 196.9ZM76.9349 196.02C77.0683 196.213 77.2349 196.37 77.4349 196.49C77.6349 196.61 77.8683 196.67 78.1349 196.67C78.4083 196.67 78.6449 196.61 78.8449 196.49C79.0449 196.363 79.2116 196.203 79.3449 196.01C79.4783 195.81 79.5783 195.587 79.6449 195.34C79.7116 195.093 79.7449 194.843 79.7449 194.59C79.7449 194.337 79.7116 194.09 79.6449 193.85C79.5783 193.603 79.4783 193.383 79.3449 193.19C79.2116 192.997 79.0449 192.843 78.8449 192.73C78.6449 192.61 78.4083 192.55 78.1349 192.55C77.8616 192.55 77.6249 192.61 77.4249 192.73C77.2249 192.843 77.0583 192.997 76.9249 193.19C76.7916 193.377 76.6916 193.593 76.6249 193.84C76.5649 194.08 76.5349 194.327 76.5349 194.58C76.5349 194.84 76.5683 195.097 76.6349 195.35C76.7016 195.597 76.8016 195.82 76.9349 196.02ZM80.6621 197L82.2921 194.57L80.7621 192.27L81.3021 192.2L82.5821 194.15L83.8121 192.27L84.4021 192.2L82.8621 194.57L84.4621 197H83.9021L82.5821 194.98L81.2421 197H80.6621ZM85.7807 196.63C85.7807 196.763 85.734 196.877 85.6407 196.97C85.554 197.057 85.4474 197.1 85.3207 197.1C85.194 197.1 85.084 197.057 84.9907 196.97C84.904 196.877 84.8607 196.763 84.8607 196.63C84.8607 196.497 84.904 196.387 84.9907 196.3C85.084 196.207 85.194 196.16 85.3207 196.16C85.4474 196.16 85.554 196.207 85.6407 196.3C85.734 196.387 85.7807 196.497 85.7807 196.63ZM89.6719 195.99C89.6719 196.243 89.7219 196.42 89.8219 196.52C89.9285 196.62 90.0719 196.67 90.2519 196.67C90.3785 196.67 90.4885 196.653 90.5819 196.62C90.6752 196.58 90.7685 196.523 90.8619 196.45L91.0819 196.83C90.9485 196.923 90.8152 196.993 90.6819 197.04C90.5552 197.087 90.3752 197.11 90.1419 197.11C89.8419 197.11 89.6019 197.023 89.4219 196.85C89.2485 196.67 89.1619 196.41 89.1619 196.07V192.68L88.3419 192.58V192.24H89.1619V190.95L89.6819 190.88V192.24H90.9619L90.8919 192.68H89.6719V195.99ZM91.9673 197V192.27L92.4873 192.2V197H91.9673ZM92.2373 191.21C92.1107 191.21 92.0073 191.17 91.9273 191.09C91.854 191.01 91.8173 190.903 91.8173 190.77C91.8173 190.637 91.854 190.53 91.9273 190.45C92.0073 190.37 92.1107 190.33 92.2373 190.33C92.364 190.33 92.464 190.37 92.5373 190.45C92.6173 190.53 92.6573 190.637 92.6573 190.77C92.6573 190.903 92.6173 191.01 92.5373 191.09C92.464 191.17 92.364 191.21 92.2373 191.21ZM93.8814 197V192.27L94.3614 192.2L94.4014 192.68C94.5547 192.547 94.7581 192.42 95.0114 192.3C95.2647 192.173 95.5581 192.11 95.8914 192.11C96.1914 192.11 96.4447 192.16 96.6514 192.26C96.8647 192.353 97.0381 192.493 97.1714 192.68C97.3514 192.527 97.5714 192.393 97.8314 192.28C98.0981 192.167 98.4114 192.11 98.7714 192.11C99.3581 192.11 99.7881 192.273 100.061 192.6C100.341 192.92 100.481 193.38 100.481 193.98V197H99.9514V193.94C99.9514 193.487 99.8414 193.147 99.6214 192.92C99.4081 192.687 99.1047 192.57 98.7114 192.57C98.4247 192.57 98.1681 192.623 97.9414 192.73C97.7147 192.837 97.5214 192.957 97.3614 193.09C97.4014 193.19 97.4347 193.313 97.4614 193.46C97.4881 193.6 97.5014 193.757 97.5014 193.93V197H96.9714V193.89C96.9714 193.703 96.9481 193.53 96.9014 193.37C96.8614 193.21 96.7947 193.07 96.7014 192.95C96.6081 192.83 96.4847 192.737 96.3314 192.67C96.1847 192.603 96.0081 192.57 95.8014 192.57C95.5281 192.57 95.2681 192.637 95.0214 192.77C94.7814 192.903 94.5747 193.04 94.4014 193.18V197H93.8814ZM102.101 194.53C102.101 195.203 102.244 195.73 102.531 196.11C102.818 196.483 103.234 196.67 103.781 196.67C104.121 196.67 104.401 196.59 104.621 196.43C104.841 196.263 105.021 196.057 105.161 195.81L105.541 196.05C105.461 196.19 105.368 196.323 105.261 196.45C105.161 196.577 105.038 196.69 104.891 196.79C104.751 196.89 104.588 196.967 104.401 197.02C104.214 197.08 104.001 197.11 103.761 197.11C103.081 197.11 102.551 196.893 102.171 196.46C101.791 196.02 101.601 195.403 101.601 194.61C101.601 194.223 101.651 193.877 101.751 193.57C101.851 193.257 101.991 192.993 102.171 192.78C102.351 192.567 102.564 192.403 102.811 192.29C103.064 192.17 103.341 192.11 103.641 192.11C103.961 192.11 104.241 192.17 104.481 192.29C104.728 192.403 104.934 192.567 105.101 192.78C105.268 192.987 105.394 193.24 105.481 193.54C105.568 193.84 105.618 194.17 105.631 194.53H102.101ZM105.041 194.09C105.028 193.823 104.978 193.593 104.891 193.4C104.804 193.2 104.694 193.04 104.561 192.92C104.434 192.793 104.291 192.7 104.131 192.64C103.971 192.58 103.808 192.55 103.641 192.55C103.261 192.55 102.934 192.673 102.661 192.92C102.388 193.16 102.214 193.55 102.141 194.09H105.041ZM109.496 195.99C109.496 196.243 109.546 196.42 109.646 196.52C109.753 196.62 109.896 196.67 110.076 196.67C110.203 196.67 110.313 196.653 110.406 196.62C110.499 196.58 110.593 196.523 110.686 196.45L110.906 196.83C110.773 196.923 110.639 196.993 110.506 197.04C110.379 197.087 110.199 197.11 109.966 197.11C109.666 197.11 109.426 197.023 109.246 196.85C109.073 196.67 108.986 196.41 108.986 196.07V192.68L108.166 192.58V192.24H108.986V190.95L109.506 190.88V192.24H110.786L110.716 192.68H109.496V195.99ZM112.674 196.9C112.414 196.753 112.194 196.563 112.014 196.33C111.834 196.097 111.697 195.827 111.604 195.52C111.517 195.213 111.474 194.9 111.474 194.58C111.474 194.26 111.517 193.953 111.604 193.66C111.697 193.36 111.831 193.097 112.004 192.87C112.184 192.637 112.404 192.453 112.664 192.32C112.931 192.18 113.241 192.11 113.594 192.11C113.941 192.11 114.247 192.18 114.514 192.32C114.781 192.46 115.004 192.647 115.184 192.88C115.364 193.107 115.497 193.37 115.584 193.67C115.677 193.97 115.724 194.28 115.724 194.6C115.724 194.927 115.677 195.243 115.584 195.55C115.497 195.85 115.364 196.117 115.184 196.35C115.004 196.577 114.781 196.76 114.514 196.9C114.247 197.04 113.941 197.11 113.594 197.11C113.247 197.11 112.941 197.04 112.674 196.9ZM112.394 196.02C112.527 196.213 112.694 196.37 112.894 196.49C113.094 196.61 113.327 196.67 113.594 196.67C113.867 196.67 114.104 196.61 114.304 196.49C114.504 196.363 114.671 196.203 114.804 196.01C114.937 195.81 115.037 195.587 115.104 195.34C115.171 195.093 115.204 194.843 115.204 194.59C115.204 194.337 115.171 194.09 115.104 193.85C115.037 193.603 114.937 193.383 114.804 193.19C114.671 192.997 114.504 192.843 114.304 192.73C114.104 192.61 113.867 192.55 113.594 192.55C113.321 192.55 113.084 192.61 112.884 192.73C112.684 192.843 112.517 192.997 112.384 193.19C112.251 193.377 112.151 193.593 112.084 193.84C112.024 194.08 111.994 194.327 111.994 194.58C111.994 194.84 112.027 195.097 112.094 195.35C112.161 195.597 112.261 195.82 112.394 196.02ZM119.071 197V192.68L118.361 192.58V192.24H119.071V191.69C119.071 191.437 119.111 191.217 119.191 191.03C119.271 190.843 119.378 190.69 119.511 190.57C119.645 190.443 119.801 190.35 119.981 190.29C120.161 190.23 120.348 190.2 120.541 190.2C120.841 190.2 121.088 190.247 121.281 190.34C121.475 190.427 121.628 190.513 121.741 190.6L121.481 190.99C121.388 190.917 121.265 190.843 121.111 190.77C120.958 190.69 120.771 190.65 120.551 190.65C120.271 190.65 120.041 190.73 119.861 190.89C119.681 191.043 119.591 191.323 119.591 191.73V192.24H120.731L120.661 192.68H119.591V197H119.071ZM122.021 197H121.501V192.27L122.021 192.2V197ZM123.413 197V192.27L123.893 192.2L123.933 192.68C124.133 192.527 124.356 192.393 124.603 192.28C124.856 192.167 125.163 192.11 125.523 192.11C126.689 192.11 127.273 192.743 127.273 194.01V197H126.753V193.96C126.753 193.52 126.646 193.177 126.433 192.93C126.219 192.683 125.893 192.56 125.453 192.56C125.133 192.56 124.846 192.623 124.593 192.75C124.346 192.877 124.126 193.02 123.933 193.18V197H123.413ZM128.628 197V192.27L129.148 192.2V197H128.628ZM128.898 191.21C128.771 191.21 128.668 191.17 128.588 191.09C128.514 191.01 128.478 190.903 128.478 190.77C128.478 190.637 128.514 190.53 128.588 190.45C128.668 190.37 128.771 190.33 128.898 190.33C129.024 190.33 129.124 190.37 129.198 190.45C129.278 190.53 129.318 190.637 129.318 190.77C129.318 190.903 129.278 191.01 129.198 191.09C129.124 191.17 129.024 191.21 128.898 191.21ZM130.612 196.01C130.738 196.21 130.898 196.37 131.092 196.49C131.292 196.61 131.542 196.67 131.842 196.67C132.182 196.67 132.448 196.597 132.642 196.45C132.842 196.303 132.942 196.083 132.942 195.79C132.942 195.483 132.842 195.247 132.642 195.08C132.442 194.907 132.118 194.743 131.672 194.59C131.212 194.437 130.885 194.263 130.692 194.07C130.498 193.877 130.402 193.613 130.402 193.28C130.402 192.933 130.532 192.653 130.792 192.44C131.052 192.22 131.412 192.11 131.872 192.11C132.245 192.11 132.552 192.18 132.792 192.32C133.032 192.453 133.222 192.63 133.362 192.85L132.972 193.13C132.858 192.963 132.708 192.823 132.522 192.71C132.342 192.597 132.125 192.54 131.872 192.54C131.552 192.54 131.312 192.61 131.152 192.75C130.998 192.883 130.922 193.053 130.922 193.26C130.922 193.38 130.938 193.483 130.972 193.57C131.012 193.657 131.075 193.737 131.162 193.81C131.255 193.883 131.378 193.957 131.532 194.03C131.692 194.097 131.888 194.17 132.122 194.25C132.568 194.403 132.898 194.593 133.112 194.82C133.332 195.047 133.442 195.36 133.442 195.76C133.442 196.2 133.288 196.537 132.982 196.77C132.682 196.997 132.302 197.11 131.842 197.11C131.402 197.11 131.052 197.03 130.792 196.87C130.538 196.703 130.342 196.503 130.202 196.27L130.612 196.01ZM134.419 197V190.34L134.939 190.27V192.65C135.132 192.497 135.352 192.37 135.599 192.27C135.852 192.163 136.149 192.11 136.489 192.11C137.109 192.11 137.559 192.267 137.839 192.58C138.119 192.893 138.259 193.353 138.259 193.96V197H137.729V193.97C137.729 193.47 137.615 193.11 137.389 192.89C137.169 192.67 136.842 192.56 136.409 192.56C136.115 192.56 135.845 192.62 135.599 192.74C135.359 192.853 135.139 192.987 134.939 193.14V197H134.419ZM140.224 196.63C140.224 196.763 140.177 196.877 140.084 196.97C139.997 197.057 139.891 197.1 139.764 197.1C139.637 197.1 139.527 197.057 139.434 196.97C139.347 196.877 139.304 196.763 139.304 196.63C139.304 196.497 139.347 196.387 139.434 196.3C139.527 196.207 139.637 196.16 139.764 196.16C139.891 196.16 139.997 196.207 140.084 196.3C140.177 196.387 140.224 196.497 140.224 196.63ZM140.224 192.66C140.224 192.793 140.177 192.907 140.084 193C139.997 193.087 139.891 193.13 139.764 193.13C139.637 193.13 139.527 193.087 139.434 193C139.347 192.907 139.304 192.793 139.304 192.66C139.304 192.527 139.347 192.417 139.434 192.33C139.527 192.237 139.637 192.19 139.764 192.19C139.891 192.19 139.997 192.237 140.084 192.33C140.177 192.417 140.224 192.527 140.224 192.66ZM147.185 191.25C146.932 191.277 146.679 191.323 146.425 191.39C146.172 191.457 145.929 191.553 145.695 191.68C145.462 191.807 145.245 191.97 145.045 192.17C144.852 192.37 144.692 192.62 144.565 192.92C144.732 192.833 144.899 192.77 145.065 192.73C145.232 192.69 145.439 192.67 145.685 192.67C145.992 192.67 146.279 192.717 146.545 192.81C146.819 192.897 147.052 193.03 147.245 193.21C147.439 193.39 147.592 193.617 147.705 193.89C147.819 194.163 147.875 194.48 147.875 194.84C147.875 195.173 147.819 195.48 147.705 195.76C147.592 196.04 147.429 196.283 147.215 196.49C147.009 196.69 146.755 196.847 146.455 196.96C146.162 197.073 145.832 197.13 145.465 197.13C145.059 197.13 144.699 197.06 144.385 196.92C144.079 196.78 143.819 196.587 143.605 196.34C143.392 196.093 143.229 195.803 143.115 195.47C143.009 195.137 142.955 194.777 142.955 194.39C142.955 193.77 143.055 193.22 143.255 192.74C143.455 192.253 143.732 191.837 144.085 191.49C144.439 191.143 144.852 190.867 145.325 190.66C145.805 190.453 146.325 190.32 146.885 190.26L147.185 191.25ZM145.245 193.74C145.052 193.74 144.879 193.757 144.725 193.79C144.579 193.823 144.439 193.873 144.305 193.94C144.299 194.027 144.292 194.113 144.285 194.2C144.285 194.28 144.285 194.367 144.285 194.46C144.285 194.953 144.382 195.333 144.575 195.6C144.775 195.86 145.079 195.99 145.485 195.99C145.792 195.99 146.045 195.893 146.245 195.7C146.452 195.507 146.555 195.213 146.555 194.82C146.555 194.433 146.439 194.157 146.205 193.99C145.972 193.823 145.652 193.74 145.245 193.74ZM150.863 197V192.26L152.043 192.1L152.113 192.54C152.266 192.407 152.456 192.293 152.683 192.2C152.916 192.107 153.15 192.06 153.383 192.06C153.616 192.06 153.853 192.097 154.093 192.17C154.333 192.237 154.553 192.357 154.753 192.53C154.986 192.397 155.24 192.287 155.513 192.2C155.786 192.107 156.083 192.06 156.403 192.06C156.783 192.06 157.1 192.107 157.353 192.2C157.606 192.293 157.81 192.427 157.963 192.6C158.123 192.773 158.236 192.987 158.303 193.24C158.37 193.493 158.403 193.783 158.403 194.11V197H157.103V194.17C157.103 193.85 157.04 193.593 156.913 193.4C156.786 193.2 156.553 193.1 156.213 193.1C156.113 193.1 156.013 193.117 155.913 193.15C155.813 193.177 155.716 193.21 155.623 193.25C155.536 193.29 155.456 193.333 155.383 193.38C155.31 193.42 155.253 193.457 155.213 193.49C155.226 193.57 155.24 193.66 155.253 193.76C155.266 193.86 155.273 193.97 155.273 194.09V197H153.973V194.17C153.973 194.023 153.96 193.887 153.933 193.76C153.906 193.627 153.863 193.513 153.803 193.42C153.743 193.32 153.66 193.243 153.553 193.19C153.453 193.13 153.326 193.1 153.173 193.1C152.98 193.1 152.793 193.15 152.613 193.25C152.433 193.35 152.286 193.457 152.173 193.57V197H150.863ZM160.321 191.63C160.061 191.63 159.865 191.557 159.731 191.41C159.605 191.263 159.541 191.1 159.541 190.92C159.541 190.747 159.605 190.587 159.731 190.44C159.865 190.293 160.061 190.22 160.321 190.22C160.581 190.22 160.775 190.293 160.901 190.44C161.035 190.587 161.101 190.747 161.101 190.92C161.101 191.1 161.035 191.263 160.901 191.41C160.775 191.557 160.581 191.63 160.321 191.63ZM159.671 197V192.25L160.971 192.1V197H159.671ZM162.269 197V192.26L163.449 192.1L163.519 192.56C163.719 192.4 163.949 192.277 164.209 192.19C164.469 192.103 164.729 192.06 164.989 192.06C165.256 192.06 165.499 192.1 165.719 192.18C165.946 192.253 166.139 192.373 166.299 192.54C166.459 192.707 166.582 192.923 166.669 193.19C166.762 193.457 166.809 193.777 166.809 194.15V197H165.499V194.25C165.499 193.883 165.419 193.6 165.259 193.4C165.099 193.2 164.876 193.1 164.589 193.1C164.389 193.1 164.202 193.15 164.029 193.25C163.856 193.35 163.706 193.46 163.579 193.58V197H162.269ZM171.37 197L171.32 196.62C171.086 196.807 170.846 196.933 170.6 197C170.353 197.067 170.11 197.1 169.87 197.1C169.283 197.1 168.833 196.93 168.52 196.59C168.206 196.25 168.05 195.737 168.05 195.05V192.25L169.36 192.1V194.92C169.36 195.253 169.423 195.523 169.55 195.73C169.676 195.937 169.893 196.04 170.2 196.04C170.453 196.04 170.666 195.993 170.84 195.9C171.013 195.8 171.153 195.707 171.26 195.62V192.25L172.57 192.1V197H171.37ZM175.381 195.64C175.381 195.793 175.414 195.9 175.481 195.96C175.554 196.013 175.624 196.04 175.691 196.04C175.824 196.04 175.954 196.007 176.081 195.94C176.207 195.873 176.317 195.803 176.411 195.73L176.881 196.62C176.661 196.767 176.427 196.887 176.181 196.98C175.941 197.067 175.684 197.11 175.411 197.11C175.244 197.11 175.081 197.087 174.921 197.04C174.761 196.993 174.617 196.92 174.491 196.82C174.371 196.72 174.271 196.59 174.191 196.43C174.117 196.263 174.081 196.063 174.081 195.83V193.18L173.371 192.93V192.18H174.081V191.02L175.381 190.85V192.18H176.621L176.491 193.18H175.381V195.64ZM178.562 194.9C178.596 195.307 178.719 195.6 178.932 195.78C179.152 195.96 179.396 196.05 179.662 196.05C179.896 196.05 180.106 196.01 180.292 195.93C180.479 195.843 180.672 195.66 180.872 195.38L181.842 195.97C181.569 196.39 181.252 196.687 180.892 196.86C180.532 197.027 180.109 197.11 179.622 197.11C179.302 197.11 178.999 197.06 178.712 196.96C178.426 196.86 178.172 196.707 177.952 196.5C177.739 196.287 177.569 196.023 177.442 195.71C177.316 195.397 177.252 195.023 177.252 194.59C177.252 194.183 177.312 193.823 177.432 193.51C177.559 193.197 177.729 192.933 177.942 192.72C178.156 192.507 178.402 192.343 178.682 192.23C178.969 192.117 179.272 192.06 179.592 192.06C180.266 192.06 180.806 192.297 181.212 192.77C181.626 193.237 181.839 193.947 181.852 194.9H178.562ZM180.522 194.01C180.496 193.69 180.386 193.45 180.192 193.29C180.006 193.13 179.806 193.05 179.592 193.05C179.479 193.05 179.366 193.073 179.252 193.12C179.146 193.16 179.046 193.223 178.952 193.31C178.859 193.39 178.779 193.49 178.712 193.61C178.652 193.73 178.612 193.863 178.592 194.01H180.522ZM183.416 195.38C183.53 195.593 183.686 195.773 183.886 195.92C184.093 196.06 184.35 196.13 184.656 196.13C184.923 196.13 185.13 196.09 185.276 196.01C185.43 195.923 185.506 195.807 185.506 195.66C185.506 195.52 185.426 195.397 185.266 195.29C185.106 195.183 184.81 195.09 184.376 195.01C184.123 194.963 183.89 194.903 183.676 194.83C183.47 194.75 183.293 194.65 183.146 194.53C183 194.41 182.886 194.267 182.806 194.1C182.726 193.933 182.686 193.733 182.686 193.5C182.686 193.073 182.863 192.727 183.216 192.46C183.576 192.193 184.06 192.06 184.666 192.06C185.213 192.06 185.646 192.15 185.966 192.33C186.286 192.503 186.533 192.717 186.706 192.97L185.786 193.6C185.666 193.44 185.513 193.307 185.326 193.2C185.14 193.093 184.92 193.04 184.666 193.04C184.386 193.04 184.193 193.083 184.086 193.17C183.98 193.25 183.926 193.357 183.926 193.49C183.926 193.643 183.993 193.753 184.126 193.82C184.26 193.887 184.506 193.957 184.866 194.03C185.16 194.09 185.42 194.16 185.646 194.24C185.88 194.32 186.076 194.423 186.236 194.55C186.396 194.67 186.516 194.817 186.596 194.99C186.683 195.163 186.726 195.367 186.726 195.6C186.726 195.86 186.673 196.087 186.566 196.28C186.46 196.467 186.313 196.623 186.126 196.75C185.94 196.87 185.72 196.96 185.466 197.02C185.213 197.08 184.943 197.11 184.656 197.11C184.083 197.11 183.616 197.003 183.256 196.79C182.903 196.57 182.633 196.297 182.446 195.97L183.416 195.38Z" fill="#006C3A"/>
<path d="M38.4167 172H35.0417V155.55L38.4167 155.175V172ZM45.1933 163.2C45.0933 164.6 45.0016 166.05 44.9183 167.55C44.8516 169.033 44.7933 170.517 44.7433 172H41.5933C41.7266 169.3 41.9099 166.533 42.1433 163.7C42.3766 160.85 42.6683 158.033 43.0183 155.25H44.4683L49.9683 166.85L55.5183 155.25H56.9683C57.3183 158.033 57.6099 160.85 57.8433 163.7C58.0933 166.533 58.2849 169.3 58.4183 172H55.1433C55.0766 170.533 55.0016 169.025 54.9183 167.475C54.8516 165.908 54.7766 164.442 54.6933 163.075L50.5433 171.7H49.2183L45.1933 163.2ZM61.6042 172V155.325H66.8542C67.7042 155.325 68.4875 155.383 69.2042 155.5C69.9375 155.6 70.6292 155.808 71.2792 156.125C72.1292 156.525 72.7542 157.125 73.1542 157.925C73.5542 158.708 73.7542 159.55 73.7542 160.45C73.7542 160.95 73.6875 161.458 73.5542 161.975C73.4209 162.475 73.2292 162.942 72.9792 163.375C72.7292 163.808 72.4209 164.2 72.0542 164.55C71.6875 164.9 71.2709 165.175 70.8042 165.375C70.2209 165.608 69.6292 165.775 69.0292 165.875C68.4292 165.958 67.8209 166 67.2042 166H64.9042V172H61.6042ZM64.9042 163.125H66.7792C67.2625 163.125 67.6959 163.1 68.0792 163.05C68.4792 163 68.8209 162.908 69.1042 162.775C69.5875 162.558 69.9292 162.258 70.1292 161.875C70.3292 161.492 70.4292 161.083 70.4292 160.65C70.4292 160.183 70.3125 159.75 70.0792 159.35C69.8625 158.95 69.5125 158.667 69.0292 158.5C68.7459 158.4 68.4459 158.325 68.1292 158.275C67.8125 158.225 67.4042 158.2 66.9042 158.2H64.9042V163.125ZM75.5991 163.65C75.5991 162.583 75.7575 161.533 76.0741 160.5C76.3908 159.45 76.8658 158.517 77.4991 157.7C78.1325 156.883 78.9325 156.225 79.8991 155.725C80.8658 155.225 81.9908 154.975 83.2741 154.975C84.5741 154.975 85.7075 155.225 86.6741 155.725C87.6408 156.225 88.4491 156.883 89.0991 157.7C89.7491 158.517 90.2325 159.45 90.5491 160.5C90.8658 161.533 91.0241 162.583 91.0241 163.65C91.0241 164.733 90.8575 165.792 90.5241 166.825C90.2075 167.858 89.7325 168.792 89.0991 169.625C88.4658 170.442 87.6658 171.1 86.6991 171.6C85.7325 172.1 84.6075 172.35 83.3241 172.35C82.0241 172.35 80.8908 172.1 79.9241 171.6C78.9575 171.1 78.1491 170.442 77.4991 169.625C76.8658 168.792 76.3908 167.858 76.0741 166.825C75.7575 165.792 75.5991 164.733 75.5991 163.65ZM87.5991 163.65C87.5991 162.917 87.5075 162.208 87.3241 161.525C87.1408 160.825 86.8658 160.208 86.4991 159.675C86.1325 159.142 85.6741 158.717 85.1241 158.4C84.5908 158.083 83.9741 157.925 83.2741 157.925C82.5741 157.925 81.9575 158.083 81.4241 158.4C80.9075 158.717 80.4658 159.142 80.0991 159.675C79.7325 160.208 79.4575 160.825 79.2741 161.525C79.0908 162.208 78.9991 162.917 78.9991 163.65C78.9991 164.383 79.0908 165.1 79.2741 165.8C79.4575 166.483 79.7325 167.092 80.0991 167.625C80.4658 168.158 80.9158 168.592 81.4491 168.925C81.9991 169.242 82.6241 169.4 83.3241 169.4C84.0241 169.4 84.6325 169.242 85.1491 168.925C85.6825 168.592 86.1325 168.158 86.4991 167.625C86.8658 167.092 87.1408 166.483 87.3241 165.8C87.5075 165.1 87.5991 164.383 87.5991 163.65ZM97.3749 165.45V172H94.0749V155.325H100.875C102.792 155.325 104.233 155.783 105.2 156.7C106.183 157.6 106.675 158.783 106.675 160.25C106.675 161.433 106.383 162.433 105.8 163.25C105.233 164.067 104.325 164.642 103.075 164.975C103.842 165.908 104.542 166.95 105.175 168.1C105.808 169.233 106.45 170.533 107.1 172H103.475C102.975 170.8 102.425 169.658 101.825 168.575C101.225 167.475 100.525 166.433 99.7249 165.45H97.3749ZM97.3749 162.725H100.575C101.508 162.725 102.192 162.517 102.625 162.1C103.058 161.683 103.275 161.083 103.275 160.3C103.275 158.817 102.408 158.075 100.675 158.075H97.3749V162.725ZM113.526 172V158.35H108.351L108.726 155.325H122.051L121.676 158.35H116.926V172H113.526ZM124.592 172V155.325H136.267L135.892 158.35H127.967V162.15H134.817L134.442 165.175H127.967V168.975H136.767L136.367 172H124.592ZM139.241 172V155.325H144.191C144.824 155.325 145.524 155.375 146.291 155.475C147.058 155.575 147.791 155.775 148.491 156.075C149.208 156.408 149.833 156.842 150.366 157.375C150.916 157.892 151.366 158.483 151.716 159.15C152.066 159.8 152.324 160.508 152.491 161.275C152.674 162.025 152.766 162.792 152.766 163.575C152.766 164.358 152.674 165.133 152.491 165.9C152.324 166.65 152.058 167.367 151.691 168.05C151.341 168.717 150.891 169.317 150.341 169.85C149.808 170.383 149.183 170.817 148.466 171.15C147.249 171.717 145.866 172 144.316 172H139.241ZM142.616 169H143.966C145.183 169 146.191 168.792 146.991 168.375C147.791 167.958 148.383 167.325 148.766 166.475C149.149 165.608 149.341 164.692 149.341 163.725C149.341 162.775 149.166 161.883 148.816 161.05C148.466 160.2 147.924 159.542 147.191 159.075C146.808 158.825 146.333 158.642 145.766 158.525C145.199 158.392 144.624 158.325 144.041 158.325H142.616V169ZM160.774 172V155.325H172.299L171.924 158.35H164.149V162.3H170.699L170.324 165.275H164.149V172H160.774ZM174.983 172V155.325H186.658L186.283 158.35H178.358V162.15H185.208L184.833 165.175H178.358V168.975H187.158L186.758 172H174.983ZM189.632 172V155.325H201.307L200.932 158.35H193.007V162.15H199.857L199.482 165.175H193.007V168.975H201.807L201.407 172H189.632ZM204.28 172V155.325H209.23C209.863 155.325 210.563 155.375 211.33 155.475C212.097 155.575 212.83 155.775 213.53 156.075C214.247 156.408 214.872 156.842 215.405 157.375C215.955 157.892 216.405 158.483 216.755 159.15C217.105 159.8 217.363 160.508 217.53 161.275C217.713 162.025 217.805 162.792 217.805 163.575C217.805 164.358 217.713 165.133 217.53 165.9C217.363 166.65 217.097 167.367 216.73 168.05C216.38 168.717 215.93 169.317 215.38 169.85C214.847 170.383 214.222 170.817 213.505 171.15C212.288 171.717 210.905 172 209.355 172H204.28ZM207.655 169H209.005C210.222 169 211.23 168.792 212.03 168.375C212.83 167.958 213.422 167.325 213.805 166.475C214.188 165.608 214.38 164.692 214.38 163.725C214.38 162.775 214.205 161.883 213.855 161.05C213.505 160.2 212.963 159.542 212.23 159.075C211.847 158.825 211.372 158.642 210.805 158.525C210.238 158.392 209.663 158.325 209.08 158.325H207.655V169Z" fill="#006C3A"/>
<g filter="url(#filter1_d)">
<path d="M123.5 247C132.286 247 141.048 246.062 149.635 244.203L146.742 230.841C139.105 232.495 131.314 233.328 123.5 233.328L123.5 247Z" fill="#006C3A"/>
</g>
<path d="M131.38 239.69C131.38 240.163 131.327 240.61 131.22 241.03C131.113 241.443 130.953 241.807 130.74 242.12C130.527 242.427 130.257 242.673 129.93 242.86C129.61 243.04 129.233 243.13 128.8 243.13C128.36 243.13 127.977 243.04 127.65 242.86C127.33 242.68 127.063 242.437 126.85 242.13C126.637 241.817 126.477 241.45 126.37 241.03C126.27 240.61 126.22 240.163 126.22 239.69C126.22 239.223 126.273 238.783 126.38 238.37C126.487 237.95 126.647 237.587 126.86 237.28C127.073 236.967 127.34 236.72 127.66 236.54C127.987 236.36 128.367 236.27 128.8 236.27C129.24 236.27 129.62 236.36 129.94 236.54C130.267 236.72 130.537 236.967 130.75 237.28C130.963 237.587 131.12 237.95 131.22 238.37C131.327 238.783 131.38 239.223 131.38 239.69ZM130.01 239.7C130.01 239.36 129.983 239.05 129.93 238.77C129.883 238.49 129.81 238.25 129.71 238.05C129.61 237.843 129.483 237.687 129.33 237.58C129.183 237.467 129.007 237.41 128.8 237.41C128.593 237.41 128.413 237.467 128.26 237.58C128.113 237.687 127.99 237.843 127.89 238.05C127.79 238.25 127.713 238.49 127.66 238.77C127.613 239.05 127.59 239.36 127.59 239.7C127.59 240.04 127.613 240.35 127.66 240.63C127.713 240.91 127.79 241.153 127.89 241.36C127.99 241.56 128.113 241.717 128.26 241.83C128.413 241.937 128.593 241.99 128.8 241.99C129.007 241.99 129.183 241.937 129.33 241.83C129.483 241.717 129.61 241.56 129.71 241.36C129.81 241.153 129.883 240.91 129.93 240.63C129.983 240.35 130.01 240.04 130.01 239.7ZM136.546 242.95C136.339 242.857 136.166 242.737 136.026 242.59C135.886 242.443 135.779 242.277 135.706 242.09C135.639 241.903 135.606 241.713 135.606 241.52C135.606 241.327 135.639 241.137 135.706 240.95C135.779 240.757 135.886 240.587 136.026 240.44C136.166 240.293 136.342 240.177 136.556 240.09C136.769 239.997 137.016 239.95 137.296 239.95C137.576 239.95 137.819 239.997 138.026 240.09C138.232 240.177 138.406 240.293 138.546 240.44C138.686 240.587 138.789 240.753 138.856 240.94C138.929 241.127 138.966 241.317 138.966 241.51C138.966 241.71 138.929 241.903 138.856 242.09C138.789 242.277 138.686 242.443 138.546 242.59C138.406 242.737 138.229 242.857 138.016 242.95C137.809 243.037 137.566 243.08 137.286 243.08C137.006 243.08 136.759 243.037 136.546 242.95ZM132.576 239.25C132.369 239.157 132.196 239.037 132.056 238.89C131.916 238.743 131.809 238.577 131.736 238.39C131.669 238.203 131.636 238.013 131.636 237.82C131.636 237.62 131.669 237.427 131.736 237.24C131.809 237.053 131.916 236.887 132.056 236.74C132.196 236.593 132.369 236.477 132.576 236.39C132.789 236.297 133.036 236.25 133.316 236.25C133.596 236.25 133.839 236.297 134.046 236.39C134.259 236.477 134.436 236.593 134.576 236.74C134.716 236.887 134.819 237.053 134.886 237.24C134.959 237.427 134.996 237.617 134.996 237.81C134.996 238.01 134.959 238.203 134.886 238.39C134.819 238.577 134.716 238.743 134.576 238.89C134.436 239.037 134.259 239.157 134.046 239.25C133.839 239.337 133.596 239.38 133.316 239.38C133.036 239.38 132.789 239.337 132.576 239.25ZM136.826 242C136.926 242.147 137.076 242.22 137.276 242.22C137.476 242.22 137.626 242.147 137.726 242C137.826 241.847 137.876 241.683 137.876 241.51C137.876 241.337 137.826 241.177 137.726 241.03C137.626 240.877 137.476 240.8 137.276 240.8C137.076 240.8 136.926 240.877 136.826 241.03C136.726 241.177 136.676 241.337 136.676 241.51C136.676 241.683 136.726 241.847 136.826 242ZM132.846 238.29C132.946 238.443 133.099 238.52 133.306 238.52C133.506 238.52 133.656 238.443 133.756 238.29C133.856 238.137 133.906 237.973 133.906 237.8C133.906 237.627 133.856 237.467 133.756 237.32C133.656 237.167 133.506 237.09 133.306 237.09C133.099 237.09 132.946 237.167 132.846 237.32C132.752 237.467 132.706 237.627 132.706 237.8C132.706 237.973 132.752 238.137 132.846 238.29ZM132.376 243H131.006L138.176 236.33H139.596L132.376 243Z" fill="white"/>
<path d="M97.6533 138.347C96.1946 138.347 95 137.155 95 135.699V103.924C95 102.468 96.1946 101.276 97.6533 101.276C99.1119 101.276 100.307 102.468 100.307 103.924V135.699C100.302 137.155 99.1119 138.347 97.6533 138.347Z" fill="#373737"/>
<path d="M105.414 138.347C103.955 138.347 102.761 137.155 102.761 135.699V103.924C102.761 102.468 103.955 101.276 105.414 101.276C106.873 101.276 108.067 102.468 108.067 103.924V135.699C108.067 137.155 106.873 138.347 105.414 138.347Z" fill="#373737"/>
<path d="M104.488 127.648C103.54 127.648 102.766 126.875 102.766 125.928V122.087C102.766 121.14 103.54 120.367 104.488 120.367C105.436 120.367 106.211 121.14 106.211 122.087V125.928C106.211 126.87 105.436 127.648 104.488 127.648Z" fill="#D1D1D1"/>
<path d="M147.841 111.923C147.841 111.923 143.491 122.549 146.629 124.567L142.426 134.13C142.426 134.13 141.02 140.262 147.144 138.767L158.277 113.444L147.841 111.923Z" fill="#373737"/>
<path d="M154.381 121.957C158.173 121.957 161.246 118.889 161.246 115.103C161.246 111.318 158.173 108.25 154.381 108.25C150.59 108.25 147.517 111.318 147.517 115.103C147.517 118.889 150.59 121.957 154.381 121.957Z" fill="#FF9999"/>
<path d="M149.973 120.945C151.145 119.628 151.703 118.213 151.22 117.785C150.738 117.358 149.397 118.078 148.226 119.395C147.054 120.713 146.496 122.127 146.978 122.555C147.461 122.983 148.802 122.262 149.973 120.945Z" fill="#FF9999"/>
<path d="M155.544 122.421C155.747 120.672 155.392 119.193 154.751 119.119C154.11 119.045 153.425 120.403 153.222 122.153C153.019 123.903 153.374 125.381 154.015 125.455C154.657 125.529 155.341 124.171 155.544 122.421Z" fill="#FF9999"/>
<path d="M146.883 116.213C148.559 115.662 149.754 114.72 149.552 114.108C149.35 113.495 147.828 113.446 146.152 113.996C144.477 114.547 143.282 115.489 143.483 116.101C143.685 116.713 145.207 116.763 146.883 116.213Z" fill="#FF9999"/>
<path d="M160.77 115.546C161.8 113.764 160.398 111.03 157.639 109.44C154.879 107.849 151.807 108.004 150.777 109.785C149.746 111.567 151.148 114.301 153.908 115.891C156.667 117.482 159.739 117.327 160.77 115.546Z" fill="#FC7777"/>
<path d="M156.16 112.606C156.16 112.606 156.454 124.079 160.138 124.666V135.111C160.138 135.111 161.315 141.29 166.327 137.466V109.81L156.16 112.606Z" fill="#373737"/>
<path d="M180.031 95.0875C179.949 79.6434 182.16 60.2151 159.61 65.9537C157.476 66.4982 157.969 65.7506 157.874 64.6617C157.497 64.7481 157.606 64.7092 157.874 64.6617C157.779 63.5727 156.852 64.074 159.138 63.5684C183.247 58.2316 182.217 77.513 182.377 94.8888C182.39 96.5352 182.671 97.2784 181.39 97.3864C181.39 97.7538 181.386 97.6587 181.39 97.3864C180.113 97.4902 180.039 96.5524 180.031 95.0875Z" fill="#373737"/>
<path d="M178.693 100.273C178.693 103.043 180.2 109.322 181.234 109.322C182.273 109.322 183.996 103.043 183.996 100.273C183.996 97.5031 182.269 95.8696 181.234 95.8696C180.2 95.8696 178.693 97.5031 178.693 100.273Z" fill="#373737"/>
<path d="M126.351 62.6609C122.663 62.6955 119.101 62.73 115.824 62.7732C107.786 62.8813 101.48 63.0325 99.3331 63.3393C94.1737 64.0739 95.061 105.264 95.061 105.264C95.061 105.264 113.184 117.917 134.107 112.619H165.786C165.786 112.619 176.248 111.443 174.629 102.468C173.006 93.4973 180.814 94.2319 171.24 65.9882C171.24 65.9882 171.937 63.8233 164.925 62.7992C164.587 62.7516 164.233 62.7041 163.856 62.6609H126.351V62.6609Z" fill="#373737"/>
<path d="M121.827 53.6426C119.931 56.3779 115.828 62.19 109.132 60.496C108.803 60.4139 108.47 60.3146 108.128 60.1936C108.007 60.1503 107.89 60.1071 107.777 60.0639C102.042 57.8169 106.375 53.7117 107.747 52.5752C107.803 52.5277 107.855 52.4845 107.899 52.4499C108.041 52.3332 108.128 52.2727 108.128 52.2727C108.128 52.2727 123.814 50.7732 121.827 53.6426Z" fill="#D1D1D1"/>
<path d="M81.8768 54.4073C81.8768 54.4073 66.1865 52.9122 68.1776 55.7815C70.1686 58.6508 74.5792 64.9036 81.8768 62.3282C89.1744 59.7527 81.8768 54.4073 81.8768 54.4073Z" fill="#D1D1D1"/>
<path d="M106.998 60.5219L106.488 62.1985L102.332 75.8537L102.328 75.8623L102.324 75.8753L101.25 79.4101L101.22 79.5094L100.718 81.1558H87.9925C87.9925 81.1558 87.8497 80.6675 87.5943 79.8076C87.577 79.7644 87.564 79.7125 87.551 79.665C86.6117 76.5191 84.3437 68.9267 82.2661 62.1813C82.1838 61.922 82.1016 61.6627 82.0237 61.4034C80.9935 58.0631 81.1017 55.8506 81.6471 54.3857C82.5517 51.9313 84.677 51.5856 84.677 51.5856L84.9497 51.5942L103.328 52.2467H103.371C103.514 52.3159 103.648 52.3807 103.782 52.4498C104.332 52.7307 104.808 53.0245 105.224 53.3227L105.228 53.327C105.799 53.7376 106.25 54.161 106.609 54.5845C107.18 55.2673 107.505 55.9587 107.669 56.6112C108.197 58.7459 106.998 60.5219 106.998 60.5219Z" fill="#373737"/>
<path d="M84.8936 52.2467C84.8936 52.2467 85.0061 48.0551 87.3261 47.8347C89.6461 47.6143 91.6371 47.3939 92.8534 45.6266C94.0697 43.8592 97.528 46.2877 97.844 47.1692C98.16 48.0508 101.727 46.3957 102.263 49.157C102.8 51.914 103.826 52.2683 103.146 52.9079C102.467 53.5474 84.8936 52.2467 84.8936 52.2467Z" fill="#373737"/>
<path d="M94.5201 88.9081C99.1194 88.9081 102.848 86.2324 102.848 82.9318C102.848 79.6312 99.1194 76.9556 94.5201 76.9556C89.9208 76.9556 86.1924 79.6312 86.1924 82.9318C86.1924 86.2324 89.9208 88.9081 94.5201 88.9081Z" fill="#FF9999"/>
<path d="M94.5199 87.3957C98.775 87.3957 102.224 85.0335 102.224 82.1195C102.224 79.2055 98.775 76.8433 94.5199 76.8433C90.2648 76.8433 86.8154 79.2055 86.8154 82.1195C86.8154 85.0335 90.2648 87.3957 94.5199 87.3957Z" fill="#F9B4B4"/>
<path d="M91.5333 83.4807C92.4632 83.4807 93.2171 82.7281 93.2171 81.7997C93.2171 80.8714 92.4632 80.1188 91.5333 80.1188C90.6034 80.1188 89.8496 80.8714 89.8496 81.7997C89.8496 82.7281 90.6034 83.4807 91.5333 83.4807Z" fill="#B56666"/>
<path d="M97.5158 83.4807C98.4457 83.4807 99.1995 82.7281 99.1995 81.7997C99.1995 80.8714 98.4457 80.1188 97.5158 80.1188C96.5859 80.1188 95.832 80.8714 95.832 81.7997C95.832 82.7281 96.5859 83.4807 97.5158 83.4807Z" fill="#B56666"/>
<path d="M108.522 60.2972C108.193 60.2151 107.86 60.1157 107.518 59.9947C107.397 59.9515 107.28 59.9083 107.168 59.8651L103.012 73.5202L103.008 73.5289L103.004 73.5418C92.0703 65.2667 98.4806 67.6088 96.0567 60.5954C94.2517 55.3753 99.8916 52.0825 102.956 50.7257C103.367 50.5399 103.731 50.3929 104.025 50.2806C104.198 50.2158 104.345 50.1596 104.462 50.1164C104.674 50.0429 104.796 50.004 104.796 50.004C104.796 50.004 105.267 50.3627 105.904 50.9893L105.908 50.9936C106.285 51.3652 106.713 51.8276 107.137 52.3764C107.574 52.9338 108.003 53.5734 108.349 54.2777C108.682 54.9389 108.938 55.6519 109.068 56.4038C109.215 57.2551 108.972 58.6552 108.522 60.2972Z" fill="#D1D1D1"/>
<path d="M85.7765 65.0808C86.2642 65.0808 86.6595 64.6861 86.6595 64.1993C86.6595 63.7124 86.2642 63.3177 85.7765 63.3177C85.2889 63.3177 84.8936 63.7124 84.8936 64.1993C84.8936 64.6861 85.2889 65.0808 85.7765 65.0808Z" fill="white"/>
<path d="M103.111 65.0808C103.599 65.0808 103.994 64.6861 103.994 64.1993C103.994 63.7124 103.599 63.3177 103.111 63.3177C102.624 63.3177 102.229 63.7124 102.229 64.1993C102.229 64.6861 102.624 65.0808 103.111 65.0808Z" fill="#383838"/>
<path d="M115.824 62.6609H164.891C164.891 62.6609 167.323 71.8911 155.165 72.1287C143.007 72.3664 140.137 70.6033 139.583 75.4042C139.029 80.2051 147.517 79.9848 147.517 79.9848C147.517 79.9848 156.935 87.5988 151.741 93.9985C146.547 100.398 119.032 99.0717 117.261 97.529C115.491 95.9863 107.536 83.9603 120.136 79.6563C120.136 79.6563 126.104 79.544 126.654 78.7748C127.204 78.0056 132.181 74.2505 125.438 72.375C118.694 70.4996 115.824 70.0545 115.824 62.6609Z" fill="#D1D1D1"/>
<path d="M162.467 88.6575C165.149 88.6575 167.323 87.0614 167.323 85.0925C167.323 83.1236 165.149 81.5275 162.467 81.5275C159.785 81.5275 157.61 83.1236 157.61 85.0925C157.61 87.0614 159.785 88.6575 162.467 88.6575Z" fill="#D1D1D1"/>
<path d="M164.199 107.23H156.295C153.772 107.23 151.707 105.169 151.707 102.65V100.441C151.707 97.9222 153.772 95.861 156.295 95.861H164.199C166.722 95.861 168.787 97.9222 168.787 100.441V102.65C168.782 105.169 166.718 107.23 164.199 107.23Z" fill="#D1D1D1"/>
<defs>
<filter id="filter0_d" x="8.98242" y="12.4343" width="234.15" height="234.15" filterUnits="userSpaceOnUse" color-interpolation-filters="sRGB">
<feFlood flood-opacity="0" result="BackgroundImageFix"/>
<feColorMatrix in="SourceAlpha" type="matrix" values="0 0 0 0 0 0 0 0 0 0 0 0 0 0 0 0 0 0 127 0"/>
<feOffset dy="4"/>
<feGaussianBlur stdDeviation="2"/>
<feColorMatrix type="matrix" values="0 0 0 0 0 0 0 0 0 0 0 0 0 0 0 0 0 0 0.25 0"/>
<feBlend mode="normal" in2="BackgroundImageFix" result="effect1_dropShadow"/>
<feBlend mode="normal" in="SourceGraphic" in2="effect1_dropShadow" result="shape"/>
</filter>
<filter id="filter1_d" x="119.5" y="230.841" width="34.1354" height="24.159" filterUnits="userSpaceOnUse" color-interpolation-filters="sRGB">
<feFlood flood-opacity="0" result="BackgroundImageFix"/>
<feColorMatrix in="SourceAlpha" type="matrix" values="0 0 0 0 0 0 0 0 0 0 0 0 0 0 0 0 0 0 127 0"/>
<feOffset dy="4"/>
<feGaussianBlur stdDeviation="2"/>
<feColorMatrix type="matrix" values="0 0 0 0 0 0 0 0 0 0 0 0 0 0 0 0 0 0 0.25 0"/>
<feBlend mode="normal" in2="BackgroundImageFix" result="effect1_dropShadow"/>
<feBlend mode="normal" in="SourceGraphic" in2="effect1_dropShadow" result="shape"/>
</filter>
</defs>
</svg>
